<?xml version="1.0" encoding="utf-8"?>
<!-- Generator: Adobe Illustrator 19.1.0, SVG Export Plug-In . SVG Version: 6.00 Build 0)  -->
<svg version="1.1" id="Layer_1" xmlns="http://www.w3.org/2000/svg" xmlns:xlink="http://www.w3.org/1999/xlink" x="0px" y="0px"
	 viewBox="0 0 210 62" style="enable-background:new 0 0 210 62;" xml:space="preserve">
<style type="text/css">
	.st0{display:none;}
	.st1{display:inline;}
	.st2{fill:#ad0c14;}
	.st3{fill:#AA63A3;}
	.st4{fill:#C56246;}
	.st5{font-family:'OpenSans-Extrabold';}
	.st6{font-size:56px;}
	.st7{font-family:'RobotoCondensed-Regular';}
	.st8{font-size:13px;}
</style>
<g class="st0">
	<defs>
		<rect id="SVGID_1_" x="-9.1" y="-80.3" width="695" height="191"/>
	</defs>
	<clipPath id="SVGID_2_" class="st1">
		<use xlink:href="#SVGID_1_"  style="overflow:visible;"/>
	</clipPath>
	<g style="display:inline;clip-path:url(#SVGID_2_);">
		
			<image style="overflow:visible;" width="695" height="191" xlink:href="8D2C3D9F5B314A7B.jpg"  transform="matrix(1 0 0 1 -9.1317 -80.3003)">
		</image>
	</g>
</g>
<g>
	<g>
		<g>
			<g>
				<path class="st2" d="M55.6,12.1L12.1,55.6c5.2,4,11.8,6.4,18.9,6.4c17.1,0,31-13.9,31-31C62,23.9,59.6,17.3,55.6,12.1z"/>
			</g>
		</g>
		<g>
			<g>
				<path class="st2" d="M49.9,6.4C44.7,2.4,38.1,0,31,0C13.9,0,0,13.9,0,31c0,7.1,2.4,13.7,6.4,18.9L49.9,6.4z"/>
			</g>
		</g>
	</g>
	<g>
		<path d="M109.8,35h-4.4v7.7H94.7V35H78.8v-7.9L95.4,2.8h10V27h4.4V35z M94.7,27v-4.6c0-0.9,0-2.1,0.1-3.5c0.1-1.5,0.1-2.3,0.2-2.3
			h-0.3c-0.6,1.4-1.3,2.7-2.1,3.9L88.1,27H94.7z"/>
		<path d="M132.8,11.1c-2.6,0-4.6,1.1-6,3.2c-1.4,2.1-2.2,5-2.2,8.7c0,7.7,2.9,11.5,8.8,11.5c1.8,0,3.5-0.2,5.1-0.7
			c1.7-0.5,3.3-1.1,5-1.8v9.1c-3.3,1.5-7.1,2.2-11.3,2.2c-6,0-10.7-1.8-13.9-5.2c-3.2-3.5-4.8-8.6-4.8-15.2c0-4.1,0.8-7.8,2.3-10.9
			c1.6-3.1,3.8-5.5,6.7-7.2c2.9-1.7,6.4-2.5,10.3-2.5c4.3,0,8.4,0.9,12.4,2.8l-3.3,8.5c-1.5-0.7-3-1.3-4.4-1.8
			C136.1,11.3,134.5,11.1,132.8,11.1z"/>
		<path d="M151.3,42.8v-40h10.9v40H151.3z"/>
		<path d="M208.2,22.7c0,6.7-1.7,11.8-4.9,15.3c-3.3,3.5-8.1,5.2-14.5,5.2c-6.3,0-11.1-1.8-14.4-5.3c-3.3-3.5-5-8.6-5-15.4
			c0-6.7,1.7-11.7,5-15.2c3.3-3.5,8.2-5.3,14.5-5.3c6.4,0,11.2,1.7,14.5,5.2C206.6,10.9,208.2,16,208.2,22.7z M180.7,22.7
			c0,7.7,2.7,11.6,8.1,11.6c2.7,0,4.8-0.9,6.1-2.8c1.3-1.9,2-4.8,2-8.8c0-4-0.7-6.9-2-8.8c-1.3-1.9-3.3-2.9-6-2.9
			C183.4,11,180.7,14.9,180.7,22.7z"/>
	</g>
	<g>
		<path d="M82.5,55.5h-0.6v2.9h-1.1v-6.9h1.1v2.9h0.6l1.9-2.9h1.3l-2.3,3.3l2.5,3.6h-1.4L82.5,55.5z"/>
		<path d="M92.1,51.6v6.9H91v-5.9h-1.8L89,54.9c-0.1,1.3-0.2,2.2-0.5,2.7c-0.3,0.5-0.7,0.8-1.4,0.8h-0.4v-1l0.3,0
			c0.3,0,0.5-0.3,0.7-0.6c0.1-0.4,0.2-1.1,0.3-2.2l0.1-2.9H92.1z"/>
		<path d="M96.1,56.6l1.3-5h1.2l-2.2,7.8c-0.2,0.6-0.4,1-0.7,1.3c-0.3,0.3-0.7,0.5-1.1,0.5c-0.2,0-0.3,0-0.6-0.1v-1l0.2,0
			c0.3,0,0.6-0.1,0.8-0.2c0.2-0.2,0.3-0.4,0.4-0.8l0.2-0.8l-2-6.8h1.2L96.1,56.6z"/>
		<path d="M102.5,52c0.7,0,1.3,0.3,1.7,0.9c0.4,0.6,0.6,1.3,0.6,2.3v0.1c0,1-0.2,1.8-0.7,2.4c-0.5,0.6-1.1,0.9-1.9,0.9
			s-1.4-0.3-1.9-0.9s-0.7-1.4-0.7-2.5v-0.6c0-1.4,0.2-2.6,0.7-3.4c0.4-0.9,1.1-1.4,2-1.6c0.5-0.1,0.8-0.2,1-0.4
			c0.2-0.2,0.3-0.4,0.3-0.6h0.9l0,0.2c-0.1,0.8-0.5,1.4-1.2,1.6l-0.8,0.2c-0.6,0.2-1,0.4-1.3,0.8c-0.3,0.4-0.5,0.9-0.6,1.5
			C101.2,52.3,101.8,52,102.5,52z M102.3,53c-0.4,0-0.8,0.2-1.1,0.6c-0.3,0.4-0.4,1-0.4,1.7c0,0.7,0.1,1.3,0.4,1.8
			c0.3,0.4,0.6,0.6,1.1,0.6s0.8-0.2,1.1-0.6s0.4-1.1,0.4-1.9c0-0.7-0.1-1.2-0.4-1.6C103.1,53.2,102.8,53,102.3,53z"/>
		<path d="M114.2,52.6h-1.9v5.9h-1.1v-5.9h-1.8v-1h4.8V52.6z"/>
		<path d="M115.2,54.7c0-1,0.2-1.8,0.7-2.4c0.5-0.6,1.1-0.9,1.9-0.9s1.4,0.3,1.9,0.9c0.5,0.6,0.7,1.3,0.7,2.3v0.7
			c0,1-0.2,1.8-0.7,2.4s-1.1,0.9-1.9,0.9c-0.8,0-1.4-0.3-1.9-0.8c-0.5-0.6-0.7-1.3-0.7-2.3V54.7z M116.3,55.4c0,0.7,0.1,1.3,0.4,1.7
			c0.3,0.4,0.7,0.6,1.1,0.6c1,0,1.5-0.7,1.5-2.1v-0.8c0-0.7-0.1-1.3-0.4-1.7c-0.3-0.4-0.7-0.6-1.1-0.6c-0.5,0-0.8,0.2-1.1,0.6
			c-0.3,0.4-0.4,1-0.4,1.7V55.4z"/>
		<path d="M127.1,58.5H126v-5.9h-2.5v5.9h-1.1v-6.9h4.7V58.5z"/>
		<path d="M131.3,55h-2.6v-1h2.6V55z"/>
		<path d="M136.2,56.9l1.8-5.3h1.4v6.9h-1.1v-4.7l-1.7,4.7h-0.8l-1.8-4.8v4.8h-1.1v-6.9h1.4L136.2,56.9z"/>
		<path d="M144,58.6c-0.9,0-1.5-0.3-2-0.8c-0.5-0.5-0.7-1.3-0.7-2.2v-0.8c0-1,0.2-1.8,0.7-2.4c0.4-0.6,1.1-0.9,1.9-0.9
			c0.8,0,1.4,0.3,1.8,0.8s0.6,1.3,0.6,2.4v0.7h-3.8v0.2c0,0.7,0.1,1.3,0.4,1.6c0.3,0.3,0.7,0.5,1.2,0.5c0.3,0,0.6-0.1,0.9-0.2
			c0.3-0.1,0.5-0.3,0.7-0.6l0.6,0.7C145.7,58.3,145,58.6,144,58.6z M143.8,52.4c-0.5,0-0.8,0.2-1,0.5c-0.2,0.3-0.4,0.8-0.4,1.5h2.7
			v-0.2c0-0.7-0.1-1.1-0.4-1.4C144.6,52.6,144.3,52.4,143.8,52.4z"/>
		<path d="M152.7,58.5h-1.1v-2.9h-2.5v2.9H148v-6.9h1.1v3h2.5v-3h1.1V58.5z"/>
		<path d="M157.3,58.6c-0.9,0-1.5-0.3-2-0.8c-0.5-0.5-0.7-1.3-0.7-2.2v-0.8c0-1,0.2-1.8,0.7-2.4c0.4-0.6,1.1-0.9,1.9-0.9
			c0.8,0,1.4,0.3,1.8,0.8s0.6,1.3,0.6,2.4v0.7h-3.8v0.2c0,0.7,0.1,1.3,0.4,1.6c0.3,0.3,0.7,0.5,1.2,0.5c0.3,0,0.6-0.1,0.9-0.2
			c0.3-0.1,0.5-0.3,0.7-0.6l0.6,0.7C159.1,58.3,158.3,58.6,157.3,58.6z M157.2,52.4c-0.5,0-0.8,0.2-1,0.5c-0.2,0.3-0.4,0.8-0.4,1.5
			h2.7v-0.2c0-0.7-0.1-1.1-0.4-1.4C157.9,52.6,157.6,52.4,157.2,52.4z"/>
		<path d="M161.3,57.5l0.3-0.5c0.4-0.6,0.6-1.4,0.6-2.5l0.1-3h3.8v5.9h0.8v3h-1.1v-2h-3.9v2h-1.1l0-3H161.3z M162.5,57.5h2.5v-4.8
			h-1.6l-0.1,1.7C163.3,55.7,163,56.8,162.5,57.5z"/>
		<path d="M173.2,55.5h-0.7v3h-1.1v-3h-0.7l-1.4,3H168l2-3.6l-1.8-3.3h1.4l1.3,2.8h0.6v-2.8h1.1v2.8h0.6l1.4-2.8h1.4l-1.8,3.3l2,3.6
			h-1.4L173.2,55.5z"/>
		<path d="M179.8,58.6c-0.9,0-1.5-0.3-2-0.8c-0.5-0.5-0.7-1.3-0.7-2.2v-0.8c0-1,0.2-1.8,0.7-2.4c0.4-0.6,1.1-0.9,1.9-0.9
			c0.8,0,1.4,0.3,1.8,0.8s0.6,1.3,0.6,2.4v0.7h-3.8v0.2c0,0.7,0.1,1.3,0.4,1.6c0.3,0.3,0.7,0.5,1.2,0.5c0.3,0,0.6-0.1,0.9-0.2
			c0.3-0.1,0.5-0.3,0.7-0.6l0.6,0.7C181.6,58.3,180.8,58.6,179.8,58.6z M179.7,52.4c-0.5,0-0.8,0.2-1,0.5c-0.2,0.3-0.4,0.8-0.4,1.5
			h2.7v-0.2c0-0.7-0.1-1.1-0.4-1.4C180.4,52.6,180.1,52.4,179.7,52.4z"/>
		<path d="M188.7,55.4c0,1.1-0.2,1.9-0.6,2.4c-0.4,0.5-0.9,0.8-1.7,0.8c-0.7,0-1.2-0.3-1.6-0.8v3.3h-1.1v-9.5h1l0.1,0.8
			c0.4-0.6,0.9-0.9,1.6-0.9c0.8,0,1.3,0.3,1.7,0.8s0.6,1.3,0.6,2.4V55.4z M187.6,54.7c0-0.8-0.1-1.3-0.4-1.7
			c-0.2-0.4-0.6-0.5-1.1-0.5c-0.5,0-0.9,0.3-1.2,0.8v3.6c0.3,0.5,0.7,0.8,1.2,0.8c0.5,0,0.9-0.2,1.1-0.5c0.2-0.4,0.4-0.9,0.4-1.7
			V54.7z"/>
		<path d="M190.3,54.7c0-1,0.2-1.8,0.7-2.4c0.5-0.6,1.1-0.9,1.9-0.9s1.4,0.3,1.9,0.9c0.5,0.6,0.7,1.3,0.7,2.3v0.7
			c0,1-0.2,1.8-0.7,2.4s-1.1,0.9-1.9,0.9c-0.8,0-1.4-0.3-1.9-0.8c-0.5-0.6-0.7-1.3-0.7-2.3V54.7z M191.4,55.4c0,0.7,0.1,1.3,0.4,1.7
			c0.3,0.4,0.7,0.6,1.1,0.6c1,0,1.5-0.7,1.5-2.1v-0.8c0-0.7-0.1-1.3-0.4-1.7c-0.3-0.4-0.7-0.6-1.1-0.6c-0.5,0-0.8,0.2-1.1,0.6
			c-0.3,0.4-0.4,1-0.4,1.7V55.4z"/>
		<path d="M197.5,58.5v-6.9h2.3c0.8,0,1.4,0.2,1.8,0.5s0.6,0.8,0.6,1.4c0,0.3-0.1,0.6-0.2,0.9s-0.4,0.4-0.7,0.6
			c0.4,0.1,0.6,0.3,0.8,0.6c0.2,0.3,0.3,0.6,0.3,1c0,0.6-0.2,1.1-0.6,1.5c-0.4,0.3-1,0.5-1.7,0.5H197.5z M198.6,54.5h1.2
			c0.9,0,1.3-0.3,1.3-1c0-0.6-0.4-1-1.2-1h-1.3V54.5z M198.6,55.5v2.1h1.5c0.8,0,1.1-0.3,1.1-1c0-0.7-0.4-1-1.1-1H198.6z"/>
	</g>
</g>
<g class="st0">
	<g class="st1">
		<g>
			<path class="st2" d="M55.6,12.1L12.1,55.6c5.2,4,11.8,6.4,18.9,6.4c17.1,0,31-13.9,31-31C62,23.9,59.6,17.3,55.6,12.1z"/>
		</g>
		<g>
			<path class="st2" d="M49.9,6.4C44.7,2.4,38.1,0,31,0C13.9,0,0,13.9,0,31c0,7.1,2.4,13.7,6.4,18.9L49.9,6.4z"/>
		</g>
	</g>
	<text transform="matrix(1 0 0 1 77.8381 42.7869)" class="st1 st5 st6">4CIO</text>
	<text transform="matrix(1 0 0 1 79.8378 58.4743)" class="st1 st7 st8">клуб топ-менеджеров</text>
</g>
</svg>
