<?xml version="1.0" encoding="utf-8"?>
<!-- Generator: Adobe Illustrator 19.1.0, SVG Export Plug-In . SVG Version: 6.00 Build 0)  -->
<svg version="1.1" id="Layer_1" xmlns="http://www.w3.org/2000/svg" xmlns:xlink="http://www.w3.org/1999/xlink" x="0px" y="0px"
	 viewBox="0 0 210 62" style="enable-background:new 0 0 210 62;" xml:space="preserve">
<style type="text/css">
	.st0{display:none;}
	.st1{display:inline;}
	.st2{fill:#475287;}
	.st3{fill:#0abae5;}
	.st4{fill:#C56246;}
	.st5{font-family:'OpenSans-Bold';}
	.st6{font-size:56px;}
	.st7{font-family:'RobotoCondensed-Regular';}
	.st8{font-size:13px;}
</style>
<g class="st0">
	<defs>
		<rect id="SVGID_1_" x="-9.1" y="-186" width="695" height="191"/>
	</defs>
	<clipPath id="SVGID_2_" class="st1">
		<use xlink:href="#SVGID_1_"  style="overflow:visible;"/>
	</clipPath>
	<g style="display:inline;clip-path:url(#SVGID_2_);">
		
			<image style="overflow:visible;" width="695" height="191" xlink:href="8D23D292A122F630.jpg"  transform="matrix(1 0 0 1 -9.1317 -186.0363)">
		</image>
	</g>
</g>
<g>
	<g>
		<g>
			<g>
				<polygon class="st3" points="47,47 30,47 30,62 62,62 62,30 47,30 				"/>
			</g>
		</g>
		<g>
			<g>
				<polygon class="st3" points="0,0 0,62 15,62 15,47 15,15 47,15 62,15 62,0 				"/>
			</g>
		</g>
	</g>
	<g>
		<path d="M108.9,34.5h-4.8v8.3h-8.3v-8.3H78.8v-5.9L96.3,2.8h7.8v25.1h4.8V34.5z M95.9,27.9v-6.8c0-1.1,0-2.8,0.1-4.9
			c0.1-2.2,0.2-3.4,0.2-3.7H96c-0.7,1.5-1.5,3-2.4,4.4l-7.3,11.1H95.9z"/>
		<path d="M131.8,9.3c-3.2,0-5.7,1.2-7.4,3.6c-1.8,2.4-2.6,5.7-2.6,10c0,8.9,3.3,13.4,10,13.4c2.8,0,6.2-0.7,10.2-2.1v7.1
			c-3.3,1.4-6.9,2.1-11,2.1c-5.8,0-10.3-1.8-13.3-5.3c-3.1-3.5-4.6-8.6-4.6-15.2c0-4.2,0.8-7.8,2.3-10.9c1.5-3.1,3.7-5.5,6.5-7.2
			c2.8-1.7,6.2-2.5,10-2.5c3.9,0,7.8,0.9,11.7,2.8l-2.7,6.9c-1.5-0.7-3-1.3-4.5-1.9C134.8,9.6,133.3,9.3,131.8,9.3z"/>
		<path d="M150.5,42.8v-40h8.5v40H150.5z"/>
		<path d="M205.3,22.7c0,6.6-1.6,11.7-4.9,15.3s-8,5.3-14.1,5.3s-10.8-1.8-14.1-5.3s-4.9-8.7-4.9-15.3c0-6.7,1.6-11.7,4.9-15.2
			c3.3-3.5,8-5.3,14.2-5.3c6.1,0,10.8,1.8,14.1,5.3C203.7,11,205.3,16.1,205.3,22.7z M176.2,22.7c0,4.5,0.8,7.8,2.5,10.1
			c1.7,2.3,4.2,3.4,7.6,3.4c6.8,0,10.1-4.5,10.1-13.5c0-9-3.4-13.5-10.1-13.5c-3.4,0-5.9,1.1-7.6,3.4
			C177,14.9,176.2,18.3,176.2,22.7z"/>
	</g>
	<g>
		<path d="M82.5,55.6h-0.6v2.9h-1.1v-6.9h1.1v2.9h0.6l1.9-2.9h1.3l-2.3,3.3l2.5,3.6h-1.4L82.5,55.6z"/>
		<path d="M92.1,51.7v6.9H91v-5.9h-1.8L89,55c-0.1,1.3-0.2,2.2-0.5,2.7c-0.3,0.5-0.7,0.8-1.4,0.8h-0.4v-1l0.3,0
			c0.3,0,0.5-0.3,0.7-0.6c0.1-0.4,0.2-1.1,0.3-2.2l0.1-2.9H92.1z"/>
		<path d="M96.1,56.7l1.3-5h1.2l-2.2,7.8c-0.2,0.6-0.4,1-0.7,1.3c-0.3,0.3-0.7,0.5-1.1,0.5c-0.2,0-0.3,0-0.6-0.1v-1l0.2,0
			c0.3,0,0.6-0.1,0.8-0.2c0.2-0.2,0.3-0.4,0.4-0.8l0.2-0.8l-2-6.8h1.2L96.1,56.7z"/>
		<path d="M102.5,52.1c0.7,0,1.3,0.3,1.7,0.9c0.4,0.6,0.6,1.3,0.6,2.3v0.1c0,1-0.2,1.8-0.7,2.4c-0.5,0.6-1.1,0.9-1.9,0.9
			s-1.4-0.3-1.9-0.9s-0.7-1.4-0.7-2.5v-0.6c0-1.4,0.2-2.6,0.7-3.4c0.4-0.9,1.1-1.4,2-1.6c0.5-0.1,0.8-0.2,1-0.4
			c0.2-0.2,0.3-0.4,0.3-0.6h0.9l0,0.2c-0.1,0.8-0.5,1.4-1.2,1.6l-0.8,0.2c-0.6,0.2-1,0.4-1.3,0.8c-0.3,0.4-0.5,0.9-0.6,1.5
			C101.2,52.4,101.8,52.1,102.5,52.1z M102.3,53c-0.4,0-0.8,0.2-1.1,0.6c-0.3,0.4-0.4,1-0.4,1.7c0,0.7,0.1,1.3,0.4,1.8
			c0.3,0.4,0.6,0.6,1.1,0.6s0.8-0.2,1.1-0.6s0.4-1.1,0.4-1.9c0-0.7-0.1-1.2-0.4-1.6C103.1,53.2,102.8,53,102.3,53z"/>
		<path d="M114.2,52.6h-1.9v5.9h-1.1v-5.9h-1.8v-1h4.8V52.6z"/>
		<path d="M115.2,54.8c0-1,0.2-1.8,0.7-2.4c0.5-0.6,1.1-0.9,1.9-0.9s1.4,0.3,1.9,0.9c0.5,0.6,0.7,1.3,0.7,2.3v0.7
			c0,1-0.2,1.8-0.7,2.4s-1.1,0.9-1.9,0.9c-0.8,0-1.4-0.3-1.9-0.8c-0.5-0.6-0.7-1.3-0.7-2.3V54.8z M116.3,55.4c0,0.7,0.1,1.3,0.4,1.7
			c0.3,0.4,0.7,0.6,1.1,0.6c1,0,1.5-0.7,1.5-2.1v-0.8c0-0.7-0.1-1.3-0.4-1.7c-0.3-0.4-0.7-0.6-1.1-0.6c-0.5,0-0.8,0.2-1.1,0.6
			c-0.3,0.4-0.4,1-0.4,1.7V55.4z"/>
		<path d="M127.1,58.5H126v-5.9h-2.5v5.9h-1.1v-6.9h4.7V58.5z"/>
		<path d="M131.3,55.1h-2.6v-1h2.6V55.1z"/>
		<path d="M136.2,57l1.8-5.3h1.4v6.9h-1.1v-4.7l-1.7,4.7h-0.8l-1.8-4.8v4.8h-1.1v-6.9h1.4L136.2,57z"/>
		<path d="M144,58.7c-0.9,0-1.5-0.3-2-0.8c-0.5-0.5-0.7-1.3-0.7-2.2v-0.8c0-1,0.2-1.8,0.7-2.4c0.4-0.6,1.1-0.9,1.9-0.9
			c0.8,0,1.4,0.3,1.8,0.8s0.6,1.3,0.6,2.4v0.7h-3.8v0.2c0,0.7,0.1,1.3,0.4,1.6c0.3,0.3,0.7,0.5,1.2,0.5c0.3,0,0.6-0.1,0.9-0.2
			c0.3-0.1,0.5-0.3,0.7-0.6l0.6,0.7C145.7,58.3,145,58.7,144,58.7z M143.8,52.5c-0.5,0-0.8,0.2-1,0.5c-0.2,0.3-0.4,0.8-0.4,1.5h2.7
			v-0.2c0-0.7-0.1-1.1-0.4-1.4C144.6,52.6,144.3,52.5,143.8,52.5z"/>
		<path d="M152.7,58.5h-1.1v-2.9h-2.5v2.9H148v-6.9h1.1v3h2.5v-3h1.1V58.5z"/>
		<path d="M157.3,58.7c-0.9,0-1.5-0.3-2-0.8c-0.5-0.5-0.7-1.3-0.7-2.2v-0.8c0-1,0.2-1.8,0.7-2.4c0.4-0.6,1.1-0.9,1.9-0.9
			c0.8,0,1.4,0.3,1.8,0.8s0.6,1.3,0.6,2.4v0.7h-3.8v0.2c0,0.7,0.1,1.3,0.4,1.6c0.3,0.3,0.7,0.5,1.2,0.5c0.3,0,0.6-0.1,0.9-0.2
			c0.3-0.1,0.5-0.3,0.7-0.6l0.6,0.7C159.1,58.3,158.3,58.7,157.3,58.7z M157.2,52.5c-0.5,0-0.8,0.2-1,0.5c-0.2,0.3-0.4,0.8-0.4,1.5
			h2.7v-0.2c0-0.7-0.1-1.1-0.4-1.4C157.9,52.6,157.6,52.5,157.2,52.5z"/>
		<path d="M161.3,57.6l0.3-0.5c0.4-0.6,0.6-1.4,0.6-2.5l0.1-3h3.8v5.9h0.8v3h-1.1v-2h-3.9v2h-1.1l0-3H161.3z M162.5,57.6h2.5v-4.8
			h-1.6l-0.1,1.7C163.3,55.8,163,56.8,162.5,57.6z"/>
		<path d="M173.2,55.5h-0.7v3h-1.1v-3h-0.7l-1.4,3H168l2-3.6l-1.8-3.3h1.4l1.3,2.8h0.6v-2.8h1.1v2.8h0.6l1.4-2.8h1.4l-1.8,3.3l2,3.6
			h-1.4L173.2,55.5z"/>
		<path d="M179.8,58.7c-0.9,0-1.5-0.3-2-0.8c-0.5-0.5-0.7-1.3-0.7-2.2v-0.8c0-1,0.2-1.8,0.7-2.4c0.4-0.6,1.1-0.9,1.9-0.9
			c0.8,0,1.4,0.3,1.8,0.8s0.6,1.3,0.6,2.4v0.7h-3.8v0.2c0,0.7,0.1,1.3,0.4,1.6c0.3,0.3,0.7,0.5,1.2,0.5c0.3,0,0.6-0.1,0.9-0.2
			c0.3-0.1,0.5-0.3,0.7-0.6l0.6,0.7C181.6,58.3,180.8,58.7,179.8,58.7z M179.7,52.5c-0.5,0-0.8,0.2-1,0.5c-0.2,0.3-0.4,0.8-0.4,1.5
			h2.7v-0.2c0-0.7-0.1-1.1-0.4-1.4C180.4,52.6,180.1,52.5,179.7,52.5z"/>
		<path d="M188.7,55.4c0,1.1-0.2,1.9-0.6,2.4c-0.4,0.5-0.9,0.8-1.7,0.8c-0.7,0-1.2-0.3-1.6-0.8v3.3h-1.1v-9.5h1l0.1,0.8
			c0.4-0.6,0.9-0.9,1.6-0.9c0.8,0,1.3,0.3,1.7,0.8s0.6,1.3,0.6,2.4V55.4z M187.6,54.8c0-0.8-0.1-1.3-0.4-1.7
			c-0.2-0.4-0.6-0.5-1.1-0.5c-0.5,0-0.9,0.3-1.2,0.8v3.6c0.3,0.5,0.7,0.8,1.2,0.8c0.5,0,0.9-0.2,1.1-0.5c0.2-0.4,0.4-0.9,0.4-1.7
			V54.8z"/>
		<path d="M190.3,54.8c0-1,0.2-1.8,0.7-2.4c0.5-0.6,1.1-0.9,1.9-0.9s1.4,0.3,1.9,0.9c0.5,0.6,0.7,1.3,0.7,2.3v0.7
			c0,1-0.2,1.8-0.7,2.4s-1.1,0.9-1.9,0.9c-0.8,0-1.4-0.3-1.9-0.8c-0.5-0.6-0.7-1.3-0.7-2.3V54.8z M191.4,55.4c0,0.7,0.1,1.3,0.4,1.7
			c0.3,0.4,0.7,0.6,1.1,0.6c1,0,1.5-0.7,1.5-2.1v-0.8c0-0.7-0.1-1.3-0.4-1.7c-0.3-0.4-0.7-0.6-1.1-0.6c-0.5,0-0.8,0.2-1.1,0.6
			c-0.3,0.4-0.4,1-0.4,1.7V55.4z"/>
		<path d="M197.5,58.5v-6.9h2.3c0.8,0,1.4,0.2,1.8,0.5s0.6,0.8,0.6,1.4c0,0.3-0.1,0.6-0.2,0.9s-0.4,0.4-0.7,0.6
			c0.4,0.1,0.6,0.3,0.8,0.6c0.2,0.3,0.3,0.6,0.3,1c0,0.6-0.2,1.1-0.6,1.5c-0.4,0.3-1,0.5-1.7,0.5H197.5z M198.6,54.6h1.2
			c0.9,0,1.3-0.3,1.3-1c0-0.6-0.4-1-1.2-1h-1.3V54.6z M198.6,55.5v2.1h1.5c0.8,0,1.1-0.3,1.1-1c0-0.7-0.4-1-1.1-1H198.6z"/>
	</g>
</g>
<g class="st0">
	<g class="st1">
		<g>
			<polygon class="st3" points="47,47 30,47 30,62 62,62 62,30 47,30 			"/>
		</g>
		<g>
			<polygon class="st3" points="0,0 0,62 15,62 15,47 15,15 47,15 62,15 62,0 			"/>
		</g>
	</g>
	<text transform="matrix(1 0 0 1 77.8378 42.7873)" class="st1 st5 st6">4CIO</text>
	<text transform="matrix(1 0 0 1 79.8378 58.5331)" class="st1 st7 st8">клуб топ-менеджеров</text>
</g>
</svg>
