<?xml version="1.0" encoding="utf-8"?>
<!-- Generator: Adobe Illustrator 19.1.0, SVG Export Plug-In . SVG Version: 6.00 Build 0)  -->
<svg version="1.1" id="Layer_1" xmlns="http://www.w3.org/2000/svg" xmlns:xlink="http://www.w3.org/1999/xlink" x="0px" y="0px"
	 viewBox="0 0 200 62" style="enable-background:new 0 0 200 62;" xml:space="preserve">
<style type="text/css">
	.st0{display:none;}
	.st1{display:inline;}
	.st2{fill:#475287;}
	.st3{fill:#AA63A3;}
	.st4{fill:#C56246;}
	.st5{font-family:'OpenSans-Bold';}
	.st6{font-size:52px;}
	.st7{font-family:'BebasNeueRegular';}
	.st8{font-size:14px;}
</style>
<g class="st0">
	<defs>
		<rect id="SVGID_3_" x="-2.9" y="-30.6" width="325" height="144"/>
	</defs>
	<clipPath id="SVGID_2_" class="st1">
		<use xlink:href="#SVGID_3_"  style="overflow:visible;"/>
	</clipPath>
	<g style="display:inline;clip-path:url(#SVGID_2_);">
		
			<image style="overflow:visible;" width="325" height="144" xlink:href="8D1B6785E714A1E9.jpg"  transform="matrix(1 0 0 1 -2.872 -30.6473)">
		</image>
	</g>
</g>
<g>
	<g>
		<g>
			<g>
				<path class="st4" d="M58,4v54H4V4H58 M62,0H0v62h62V0L62,0z"/>
			</g>
		</g>
	</g>
	<g>
		<path d="M106.7,32.3h-4.5V40h-7.7v-7.7H78.7v-5.5L95,2.8h7.2v23.3h4.5V32.3z M94.6,26.2v-6.3c0-1,0-2.6,0.1-4.6
			c0.1-2,0.2-3.2,0.2-3.5h-0.2c-0.6,1.4-1.4,2.7-2.3,4.1l-6.8,10.3H94.6z"/>
		<path d="M128,8.9c-3,0-5.3,1.1-6.9,3.3c-1.6,2.2-2.4,5.3-2.4,9.3c0,8.3,3.1,12.4,9.3,12.4c2.6,0,5.8-0.7,9.5-2v6.6
			c-3,1.3-6.4,1.9-10.2,1.9c-5.4,0-9.5-1.6-12.4-4.9c-2.9-3.3-4.3-8-4.3-14.1c0-3.9,0.7-7.2,2.1-10.1c1.4-2.9,3.4-5.1,6.1-6.7
			c2.6-1.5,5.7-2.3,9.3-2.3c3.6,0,7.2,0.9,10.9,2.6l-2.5,6.4c-1.4-0.7-2.8-1.2-4.2-1.7C130.7,9.1,129.3,8.9,128,8.9z"/>
		<path d="M145.3,40V2.8h7.9V40H145.3z"/>
		<path d="M196.2,21.4c0,6.1-1.5,10.9-4.6,14.2s-7.4,5-13.1,5s-10.1-1.7-13.1-5s-4.6-8-4.6-14.2c0-6.2,1.5-10.9,4.6-14.2
			c3.1-3.3,7.4-4.9,13.1-4.9c5.7,0,10.1,1.6,13.1,4.9C194.7,10.5,196.2,15.2,196.2,21.4z M169.1,21.4c0,4.1,0.8,7.3,2.4,9.4
			c1.6,2.1,3.9,3.1,7.1,3.1c6.3,0,9.4-4.2,9.4-12.5c0-8.4-3.1-12.5-9.4-12.5c-3.1,0-5.5,1.1-7.1,3.2
			C169.9,14.1,169.1,17.2,169.1,21.4z"/>
	</g>
	<g>
		<g>
			<path class="st4" d="M44,41h-4.5v7.7h-7.7V41H16v-5.5l16.3-24h7.2v23.3H44V41z M31.9,34.9v-6.3c0-1,0-2.6,0.1-4.6
				c0.1-2,0.2-3.2,0.2-3.5H32c-0.6,1.4-1.4,2.7-2.3,4.1L23,34.9H31.9z"/>
		</g>
	</g>
	<g>
		<path d="M80.1,53.5l-0.6,1v3.3h-1.1V48h1.1v4.7l2.6-4.7h1.1l-2.5,4.5l2.6,5.3h-1.1L80.1,53.5z"/>
		<path d="M86.8,49l-0.2,6.4c-0.1,1.6-0.5,2.4-2,2.5h-0.2v-1c0.9,0,1.1-0.5,1.1-1.4l0.3-7.4h4v9.8h-1.1V49H86.8z"/>
		<path d="M94.5,55.6c-0.3,1.5-0.8,2.3-2.6,2.2v-1c0.8,0,1.2-0.2,1.4-1l0.2-0.6L91.2,48h1.1l1,3.4l0.7,2.5l0.6-2.5l0.9-3.4h1.1
			L94.5,55.6z"/>
		<path d="M100.2,52c1.5,0,2.3,0.7,2.3,2.3v1.1c0,1.5-0.7,2.4-2.3,2.4H98V48h4.1v1h-3.1V52H100.2z M100.3,56.8
			c0.8,0,1.2-0.4,1.2-1.3v-1.2c0-1-0.4-1.2-1.2-1.2h-1.1v3.8H100.3z"/>
		<path d="M108.5,57.8V49h-1.8v-1h4.7v1h-1.8v8.8H108.5z"/>
		<path d="M112.7,50.3c0-1.5,0.7-2.5,2.2-2.5c1.5,0,2.3,1,2.3,2.5v5.1c0,1.5-0.7,2.5-2.3,2.5c-1.5,0-2.2-1-2.2-2.5V50.3z
			 M113.8,55.5c0,0.9,0.4,1.4,1.2,1.4c0.8,0,1.2-0.5,1.2-1.4v-5.2c0-0.9-0.4-1.4-1.2-1.4c-0.8,0-1.2,0.5-1.2,1.4V55.5z"/>
		<path d="M119.9,49v8.8h-1.1V48h4.6v9.8h-1.1V49H119.9z"/>
		<path d="M125.1,52.4h2.7v1h-2.7V52.4z"/>
		<path d="M133.1,57.8H132l-1.6-7.8v7.8h-1V48h1.5l1.6,7.8l1.6-7.8h1.5v9.8h-1v-7.9L133.1,57.8z"/>
		<path d="M140.9,52.3v1h-2.4v3.5h2.9v1h-4V48h4v1h-2.9v3.3H140.9z"/>
		<path d="M144.1,53.4v4.4H143V48h1.1v4.4h2.4V48h1.1v9.8h-1.1v-4.4H144.1z"/>
		<path d="M152.8,52.3v1h-2.4v3.5h2.9v1h-4V48h4v1h-2.9v3.3H152.8z"/>
		<path d="M159.8,59.1v-1.3h-4v1.3h-1.1v-2.3h0.6c0.3-0.4,0.4-0.8,0.4-1.4l0.4-7.4h3.9v8.8h0.7v2.3H159.8z M156.9,55.4
			c0,0.7-0.1,1.1-0.4,1.4h2.6V49h-1.8L156.9,55.4z"/>
		<path d="M167.2,53.1l-0.5,0.9v3.7h-1.1v-3.7l-0.5-0.9l-1.9,4.6h-1.1l2.2-5.6l-2.2-4.2h1.1l2.4,4.5V48h1.1v4.5l2.4-4.5h1.1
			l-2.2,4.1l2.2,5.7h-1.1L167.2,53.1z"/>
		<path d="M175.1,52.3v1h-2.4v3.5h2.9v1h-4V48h4v1h-2.9v3.3H175.1z"/>
		<path d="M179.4,48c1.5,0,2.2,0.9,2.2,2.4v1.2c0,1.6-0.7,2.4-2.3,2.4h-1v3.9h-1.1V48H179.4z M179.3,52.9c0.8,0,1.2-0.4,1.2-1.3
			v-1.3c0-0.9-0.3-1.3-1.1-1.3h-1.1v4H179.3z"/>
		<path d="M183,50.3c0-1.5,0.7-2.5,2.2-2.5c1.5,0,2.3,1,2.3,2.5v5.1c0,1.5-0.7,2.5-2.3,2.5c-1.5,0-2.2-1-2.2-2.5V50.3z M184,55.5
			c0,0.9,0.4,1.4,1.2,1.4c0.8,0,1.2-0.5,1.2-1.4v-5.2c0-0.9-0.4-1.4-1.2-1.4c-0.8,0-1.2,0.5-1.2,1.4V55.5z"/>
		<path d="M191.3,48c1.5,0,2.1,0.7,2.1,2.2v0.5c0,1-0.3,1.7-1.1,1.9c1,0.3,1.3,1,1.3,2.1v0.8c0,1.5-0.7,2.3-2.2,2.3h-2.3V48H191.3z
			 M191,52.1c0.9,0,1.3-0.3,1.3-1.3v-0.6c0-0.9-0.3-1.3-1.1-1.3h-1.1v3.2H191z M191.3,56.8c0.8,0,1.2-0.4,1.2-1.3v-0.9
			c0-1.1-0.4-1.5-1.4-1.5h-1v3.7H191.3z"/>
	</g>
</g>
<g class="st0">
	<g class="st1">
		<g>
			<path class="st4" d="M58,4v54H4V4H58 M62,0H0v62h62V0L62,0z"/>
		</g>
	</g>
	<text transform="matrix(1 0 0 1 77.8378 39.9657)" class="st1 st5 st6">4CIO</text>
	<g class="st1">
		<path class="st4" d="M44,41h-4.5v7.7h-7.7V41H16v-5.5l16.3-24h7.2v23.3H44V41z M31.9,34.9v-6.3c0-1,0-2.6,0.1-4.6
			c0.1-2,0.2-3.2,0.2-3.5H32c-0.6,1.4-1.4,2.7-2.3,4.1L23,34.9H31.9z"/>
	</g>
	<text transform="matrix(1 0 0 1 77.8378 57.7698)" class="st1 st7 st8">клуб топ-менеджеров</text>
</g>
</svg>
